ffmpeg version 2025-06-28-git-cfd1f81e7d-full_build-www.gyan.dev Copyright (c) 2000-2025 the FFmpeg developers
  built with gcc 15.1.0 (Rev4, Built by MSYS2 project)
  configuration: --enable-gpl --enable-version3 --enable-static --disable-w32threads --disable-autodetect --enable-fontconfig --enable-iconv --enable-gnutls --enable-lcms2 --enable-libxml2 --enable-gmp --enable-bzlib --enable-lzma --enable-libsnappy --enable-zlib --enable-librist --enable-libsrt --enable-libssh --enable-libzmq --enable-avisynth --enable-libbluray --enable-libcaca --enable-libdvdnav --enable-libdvdread --enable-sdl2 --enable-libaribb24 --enable-libaribcaption --enable-libdav1d --enable-libdavs2 --enable-libopenjpeg --enable-libquirc --enable-libuavs3d --enable-libxevd --enable-libzvbi --enable-liboapv --enable-libqrencode --enable-librav1e --enable-libsvtav1 --enable-libvvenc --enable-libwebp --enable-libx264 --enable-libx265 --enable-libxavs2 --enable-libxeve --enable-libxvid --enable-libaom --enable-libjxl --enable-libvpx --enable-mediafoundation --enable-libass --enable-frei0r --enable-libfreetype --enable-libfribidi --enable-libharfbuzz --enable-liblensfun --enable-libvidstab --enable-libvmaf --enable-libzimg --enable-amf --enable-cuda-llvm --enable-cuvid --enable-dxva2 --enable-d3d11va --enable-d3d12va --enable-ffnvcodec --enable-libvpl --enable-nvdec --enable-nvenc --enable-vaapi --enable-libshaderc --enable-vulkan --enable-libplacebo --enable-opencl --enable-libcdio --enable-openal --enable-libgme --enable-libmodplug --enable-libopenmpt --enable-libopencore-amrwb --enable-libmp3lame --enable-libshine --enable-libtheora --enable-libtwolame --enable-libvo-amrwbenc --enable-libcodec2 --enable-libilbc --enable-libgsm --enable-liblc3 --enable-libopencore-amrnb --enable-libopus --enable-libspeex --enable-libvorbis --enable-ladspa --enable-libbs2b --enable-libflite --enable-libmysofa --enable-librubberband --enable-libsoxr --enable-chromaprint
  libavutil      60.  3.100 / 60.  3.100
  libavcodec     62.  4.100 / 62.  4.100
  libavformat    62.  1.101 / 62.  1.101
  libavdevice    62.  0.100 / 62.  0.100
  libavfilter    11.  0.100 / 11.  0.100
  libswscale      9.  0.100 /  9.  0.100
  libswresample   6.  0.100 /  6.  0.100
Input #0, mov,mp4,m4a,3gp,3g2,mj2, from 'temp_21616.mp4':
  Metadata:
    major_brand     : isom
    minor_version   : 512
    compatible_brands: isomiso2avc1mp41
    encoder         : Lavf62.1.101
  Duration: 00:01:20.02, start: 0.000000, bitrate: 6715 kb/s
  Stream #0:0[0x1](und): Video: h264 (Main) (avc1 / 0x31637661), yuv420p(progressive), 1080x1920 [SAR 1:1 DAR 9:16], 6594 kb/s, 60 fps, 60 tbr, 15360 tbn, start 0.021029 (default)
    Metadata:
      handler_name    : VideoHandler
      vendor_id       : [0][0][0][0]
      encoder         : Lavc62.4.100 h264_nvenc
  Stream #0:1[0x2](und): Audio: aac (LC) (mp4a / 0x6134706D), 48000 Hz, stereo, fltp, 110 kb/s (default)
    Metadata:
      handler_name    : SoundHandler
      vendor_id       : [0][0][0][0]
Input #1, mp3, from 'C:/Users/Admin/Music\Cam_Tu_Cau_-_Remix_KLICKAUD.mp3':
  Duration: 00:04:41.22, start: 0.025057, bitrate: 128 kb/s
  Stream #1:0: Audio: mp3 (mp3float), 44100 Hz, stereo, fltp, 128 kb/s, start 0.025057
    Metadata:
      encoder         : LAME3.100
    Side data:
      replaygain: track gain - -6.000000, track peak - unknown, album gain - unknown, album peak - unknown, 
Stream mapping:
  Stream #0:1 (aac) -> amix
  Stream #1:0 (mp3float) -> volume:default
  Stream #0:0 -> #0:0 (copy)
  amix:default -> Stream #0:1 (aac)
Press [q] to stop, [?] for help
Output #0, mp4, to 'E:/ghep xong\45.mp4':
  Metadata:
    major_brand     : isom
    minor_version   : 512
    compatible_brands: isomiso2avc1mp41
    encoder         : Lavf62.1.101
  Stream #0:0(und): Video: h264 (Main) (avc1 / 0x31637661), yuv420p(progressive), 1080x1920 [SAR 1:1 DAR 9:16], q=2-31, 6594 kb/s, 60 fps, 60 tbr, 15360 tbn (default)
    Metadata:
      handler_name    : VideoHandler
      vendor_id       : [0][0][0][0]
      encoder         : Lavc62.4.100 h264_nvenc
  Stream #0:1: Audio: aac (LC) (mp4a / 0x6134706D), 48000 Hz, stereo, fltp, 128 kb/s
    Metadata:
      encoder         : Lavc62.4.100 aac
frame=  907 fps=0.0 q=-1.0 size=   13056KiB time=00:00:15.18 bitrate=7041.5kbits/s speed=30.2x elapsed=0:00:00.50    frame= 2133 fps=2076 q=-1.0 size=   27392KiB time=00:00:35.62 bitrate=6298.5kbits/s speed=34.7x elapsed=0:00:01.02    frame= 3279 fps=2133 q=-1.0 size=   44544KiB time=00:00:54.69 bitrate=6671.2kbits/s speed=35.6x elapsed=0:00:01.53    frame= 4513 fps=2193 q=-1.0 size=   61440KiB time=00:01:15.24 bitrate=6689.2kbits/s speed=36.6x elapsed=0:00:02.05    [out#0/mp4 @ 00000197ce62eac0] video:64397KiB audio:1306KiB subtitle:0KiB other streams:0KiB global headers:0KiB muxing overhead: 0.192694%
frame= 4800 fps=2191 q=-1.0 Lsize=   65829KiB time=00:01:19.97 bitrate=6743.4kbits/s speed=36.5x elapsed=0:00:02.19    
[aac @ 00000197ce053bc0] Qavg: 635.631
